<svg version="1.0" xmlns="http://www.w3.org/2000/svg"
 width="185.000000pt" height="184.000000pt" viewBox="0 0 185.000000 184.000000"
 preserveAspectRatio="xMidYMid meet">

<g transform="translate(0.000000,184.000000) scale(0.100000,-0.100000)"
fill="#000000" stroke="none">
<path d="M706 1780 c-109 -28 -233 -89 -335 -164 -92 -69 -127 -107 -205 -225
-182 -275 -191 -641 -24 -926 58 -98 196 -247 281 -302 75 -49 224 -110 312
-128 141 -29 345 -16 472 29 81 29 212 99 259 139 119 99 180 175 244 300 80
159 104 268 97 437 -16 355 -214 651 -526 786 -127 55 -182 66 -346 70 -125 3
-163 0 -229 -16z m424 -69 c249 -65 453 -240 550 -474 172 -411 3 -875 -389
-1072 -241 -121 -570 -110 -797 26 -70 42 -195 154 -249 223 -96 124 -156 307
-158 481 -1 154 29 278 108 435 25 49 116 155 185 216 79 69 244 150 358 175
115 25 273 21 392 -10z"/>
<path d="M825 1673 c-197 -31 -353 -109 -470 -235 -86 -92 -132 -170 -168
-283 -30 -95 -32 -107 -32 -255 1 -147 3 -160 33 -251 61 -184 201 -338 398
-437 73 -37 200 -72 260 -72 l43 0 -4 78 c-3 42 -5 80 -5 83 -1 24 -124 155
-180 192 -21 13 -29 29 -35 62 -7 51 -25 61 -25 15 0 -37 -6 -37 -52 0 -23 19
-38 41 -42 64 -9 46 -26 56 -26 16 0 -28 -2 -30 -22 -19 -12 6 -43 32 -70 57
-58 54 -73 49 -27 -9 22 -27 29 -44 21 -47 -24 -8 -11 -19 29 -25 45 -6 123
-52 114 -67 -4 -6 -26 -10 -51 -10 -24 0 -44 -4 -44 -10 0 -6 34 -10 83 -10
l83 0 49 -43 49 -43 -39 -24 c-46 -28 -131 -38 -175 -20 -28 12 -42 40 -20 40
26 0 5 17 -39 33 -28 10 -61 31 -75 48 -29 34 -32 47 -12 55 9 3 4 14 -19 37
-36 36 -52 80 -61 175 -7 64 1 77 27 46 19 -24 65 -44 107 -48 66 -6 131 -28
157 -52 l25 -23 0 24 c0 40 16 37 62 -13 33 -35 48 -62 57 -100 7 -28 10 -55
7 -61 -4 -5 14 -24 38 -41 25 -17 57 -46 72 -65 14 -19 29 -35 33 -35 3 0 7
43 8 97 1 53 6 100 11 105 6 6 19 7 31 3 20 -6 21 -13 21 -110 l0 -104 56 59
c31 33 65 62 75 65 14 5 19 16 19 46 0 53 24 106 67 151 38 39 53 41 53 7 0
-24 12 -24 34 0 18 19 74 37 147 46 45 6 89 26 108 49 27 32 34 17 28 -59 -6
-83 -36 -158 -70 -176 -18 -10 -18 -12 -4 -21 37 -20 -38 -98 -110 -113 -36
-7 -42 -19 -16 -29 15 -6 15 -8 -1 -24 -13 -13 -34 -17 -89 -17 -59 0 -78 4
-105 23 -37 27 -35 36 22 81 35 28 45 31 112 31 43 0 74 4 74 10 0 6 -20 10
-45 10 -25 0 -45 4 -45 9 0 17 76 60 118 67 41 6 54 18 30 27 -9 3 -1 17 21
40 58 62 29 65 -37 4 -34 -31 -66 -57 -71 -57 -5 0 -11 15 -13 33 -3 31 -4 31
-18 -18 -11 -36 -25 -56 -49 -72 -44 -30 -51 -29 -51 8 0 17 -4 28 -10 24 -5
-3 -10 -22 -10 -40 0 -30 -7 -40 -56 -76 -30 -23 -80 -72 -110 -108 l-54 -65
0 -85 0 -84 64 6 c214 20 460 180 574 375 92 155 121 392 74 586 -35 141 -89
234 -202 346 -106 107 -180 150 -332 194 -84 24 -240 39 -303 29z m172 -124
c35 -11 98 -75 113 -115 24 -63 7 -166 -37 -215 -12 -14 -10 -18 14 -34 65
-41 113 -133 113 -216 0 -112 -52 -200 -151 -254 -46 -25 -65 -29 -129 -29
-61 0 -84 5 -125 26 -179 94 -213 320 -68 455 44 42 45 44 29 62 -24 26 -45
88 -46 132 0 52 45 136 91 166 64 42 112 48 196 22z m-378 -33 c17 -20 2 -48
-23 -44 -24 3 -34 37 -14 49 18 12 24 11 37 -5z m635 -8 c15 -24 -10 -51 -35
-37 -22 11 -24 30 -7 47 15 15 28 11 42 -10z m-696 -137 l40 -39 -24 -11 c-13
-6 -29 -22 -36 -36 -12 -27 -28 -33 -28 -11 0 8 -14 26 -31 39 l-32 25 26 17
c15 9 29 25 32 36 4 10 8 19 9 19 2 0 21 -17 44 -39z m786 2 l35 -38 -30 -23
c-16 -13 -29 -30 -29 -38 0 -22 -16 -16 -28 11 -7 14 -23 30 -36 36 l-25 12
37 37 c20 20 38 38 39 39 2 0 18 -16 37 -36z m-954 -118 c10 -12 10 -18 0 -30
-7 -8 -18 -15 -25 -15 -19 0 -36 25 -29 44 8 20 38 21 54 1z m1104 -1 c7 -19
-10 -44 -31 -44 -17 0 -27 24 -19 45 7 20 42 19 50 -1z m-919 -104 c0 -18 -6
-26 -23 -28 -27 -4 -40 22 -22 44 19 22 45 13 45 -16z m725 15 c17 -20 5 -45
-20 -45 -11 0 -23 7 -26 15 -6 15 11 45 26 45 4 0 13 -7 20 -15z m-887 -64
l48 -49 -30 -18 c-16 -9 -34 -28 -40 -41 -14 -30 -65 -32 -83 -2 -7 11 -28 29
-46 41 l-33 20 48 48 c26 27 57 49 68 49 11 0 41 -21 68 -48z m1134 1 c40 -37
50 -51 41 -60 -7 -7 -18 -12 -24 -12 -7 0 -22 -13 -34 -30 -26 -36 -75 -42
-85 -10 -3 10 -22 29 -41 40 -18 12 -34 23 -34 25 0 13 89 93 105 94 12 0 42
-20 72 -47z m-1029 -164 c28 -28 7 -78 -33 -78 -42 0 -59 44 -29 74 18 19 45
21 62 4z m860 0 c7 -7 12 -21 12 -33 0 -12 -5 -26 -12 -33 -27 -27 -78 -7 -78
29 0 39 52 63 78 37z"/>
<path d="M820 1462 c-50 -50 -60 -97 -34 -160 25 -60 71 -92 131 -92 84 0 143
63 143 150 0 87 -56 140 -149 140 -49 0 -57 -3 -91 -38z"/>
<path d="M788 1136 c-64 -48 -90 -106 -86 -188 5 -85 39 -140 113 -177 115
-60 253 -13 306 104 41 88 6 211 -76 267 -37 25 -43 27 -82 17 -28 -8 -56 -8
-88 -1 -44 9 -49 8 -87 -22z m142 -65 c0 -4 19 -40 41 -79 35 -61 40 -77 35
-107 -13 -69 -107 -94 -152 -41 -35 40 -30 78 19 162 38 67 57 88 57 65z"/>
</g>
</svg>
